<svg width="26" height="22" viewBox="0 0 26 22" fill="none" xmlns="http://www.w3.org/2000/svg">
<path d="M18.4545 20.6364V18.4545C18.4545 17.2972 17.9948 16.1873 17.1765 15.369C16.3581 14.5507 15.2482 14.0909 14.0909 14.0909H5.36364C4.20633 14.0909 3.09642 14.5507 2.27808 15.369C1.45974 16.1873 1 17.2972 1 18.4545V20.6364" stroke="#FCF8F8" stroke-width="2" stroke-linecap="round" stroke-linejoin="round"/>
<path d="M9.72747 9.72727C12.1374 9.72727 14.0911 7.77361 14.0911 5.36364C14.0911 2.95367 12.1374 1 9.72747 1C7.3175 1 5.36383 2.95367 5.36383 5.36364C5.36383 7.77361 7.3175 9.72727 9.72747 9.72727Z" stroke="#FCF8F8" stroke-width="2" stroke-linecap="round" stroke-linejoin="round"/>
<path d="M25 20.6364V18.4546C24.9993 17.4877 24.6775 16.5485 24.0851 15.7844C23.4928 15.0202 22.6634 14.4745 21.7273 14.2328" stroke="#FCF8F8" stroke-width="2" stroke-linecap="round" stroke-linejoin="round"/>
<path d="M17.364 1.14188C18.3026 1.3822 19.1346 1.9281 19.7287 2.69349C20.3228 3.45888 20.6453 4.40024 20.6453 5.36915C20.6453 6.33806 20.3228 7.27942 19.7287 8.04481C19.1346 8.8102 18.3026 9.35609 17.364 9.59642" stroke="#FCF8F8" stroke-width="2" stroke-linecap="round" stroke-linejoin="round"/>
</svg>
