<svg width="1500" height="631" viewBox="0 0 1500 631" fill="none" xmlns="http://www.w3.org/2000/svg">
<mask id="path-1-inside-1_148_1395" fill="white">
<path d="M0 32C0 14.3269 14.3269 0 32 0H1468C1485.67 0 1500 14.3269 1500 32V619C1500 625.627 1494.63 631 1488 631H12C5.37261 631 0 625.627 0 619V32Z"/>
</mask>
<path d="M-6 32C-6 12.1177 10.1177 -4 30 -4H1470C1489.88 -4 1506 12.1177 1506 32H1494C1494 16.536 1482.36 4 1468 4H32C17.6406 4 6 16.536 6 32H-6ZM1500 631H0H1500ZM12 631C2.05887 631 -6 622.941 -6 613V32C-6 12.1177 10.1177 -4 30 -4L32 4C17.6406 4 6 16.536 6 32V619C6 625.627 8.68629 631 12 631ZM1470 -4C1489.88 -4 1506 12.1177 1506 32V613C1506 622.941 1497.94 631 1488 631C1491.31 631 1494 625.627 1494 619V32C1494 16.536 1482.36 4 1468 4L1470 -4Z" fill="url(#paint0_linear_148_1395)" mask="url(#path-1-inside-1_148_1395)"/>
<path d="M-6 32C-6 12.1177 10.1177 -4 30 -4H1470C1489.88 -4 1506 12.1177 1506 32H1494C1494 16.536 1482.36 4 1468 4H32C17.6406 4 6 16.536 6 32H-6ZM1500 631H0H1500ZM12 631C2.05887 631 -6 622.941 -6 613V32C-6 12.1177 10.1177 -4 30 -4L32 4C17.6406 4 6 16.536 6 32V619C6 625.627 8.68629 631 12 631ZM1470 -4C1489.88 -4 1506 12.1177 1506 32V613C1506 622.941 1497.94 631 1488 631C1491.31 631 1494 625.627 1494 619V32C1494 16.536 1482.36 4 1468 4L1470 -4Z" fill="url(#paint1_linear_148_1395)" mask="url(#path-1-inside-1_148_1395)"/>
<path d="M-6 32C-6 12.1177 10.1177 -4 30 -4H1470C1489.88 -4 1506 12.1177 1506 32H1494C1494 16.536 1482.36 4 1468 4H32C17.6406 4 6 16.536 6 32H-6ZM1500 631H0H1500ZM12 631C2.05887 631 -6 622.941 -6 613V32C-6 12.1177 10.1177 -4 30 -4L32 4C17.6406 4 6 16.536 6 32V619C6 625.627 8.68629 631 12 631ZM1470 -4C1489.88 -4 1506 12.1177 1506 32V613C1506 622.941 1497.94 631 1488 631C1491.31 631 1494 625.627 1494 619V32C1494 16.536 1482.36 4 1468 4L1470 -4Z" fill="url(#paint2_linear_148_1395)" mask="url(#path-1-inside-1_148_1395)"/>
<defs>
<linearGradient id="paint0_linear_148_1395" x1="750" y1="187.5" x2="750" y2="551.5" gradientUnits="userSpaceOnUse">
<stop stop-color="#AD030C"/>
<stop offset="0.886933" stop-color="#0A0101"/>
</linearGradient>
<linearGradient id="paint1_linear_148_1395" x1="750" y1="187.5" x2="750" y2="551.5" gradientUnits="userSpaceOnUse">
<stop stop-color="#AD030C"/>
<stop offset="0.886933" stop-color="#0A0101"/>
</linearGradient>
<linearGradient id="paint2_linear_148_1395" x1="750" y1="187.5" x2="750" y2="551.5" gradientUnits="userSpaceOnUse">
<stop stop-color="#AD030C"/>
<stop offset="0.886933" stop-color="#0A0101"/>
</linearGradient>
</defs>
</svg>
