<svg width="1500" height="968" viewBox="0 0 1500 968" fill="none" xmlns="http://www.w3.org/2000/svg">
<g filter="url(#filter0_i_148_1395)">
<mask id="path-1-inside-1_148_1395" fill="white">
<path d="M0 32C0 14.3269 14.3269 0 32 0H1468C1485.67 0 1500 14.3269 1500 32V956C1500 962.627 1494.63 968 1488 968H12C5.37261 968 0 962.627 0 956V32Z"/>
</mask>
<path d="M-6 32C-6 12.1177 10.1177 -4 30 -4H1470C1489.88 -4 1506 12.1177 1506 32H1494C1494 16.536 1482.36 4 1468 4H32C17.6406 4 6 16.536 6 32H-6ZM1500 968H0H1500ZM12 968C2.05887 968 -6 959.941 -6 950V32C-6 12.1177 10.1177 -4 30 -4L32 4C17.6406 4 6 16.536 6 32V956C6 962.627 8.68629 968 12 968ZM1470 -4C1489.88 -4 1506 12.1177 1506 32V950C1506 959.941 1497.94 968 1488 968C1491.31 968 1494 962.627 1494 956V32C1494 16.536 1482.36 4 1468 4L1470 -4Z" fill="url(#paint0_linear_148_1395)" mask="url(#path-1-inside-1_148_1395)"/>
<path d="M-6 32C-6 12.1177 10.1177 -4 30 -4H1470C1489.88 -4 1506 12.1177 1506 32H1494C1494 16.536 1482.36 4 1468 4H32C17.6406 4 6 16.536 6 32H-6ZM1500 968H0H1500ZM12 968C2.05887 968 -6 959.941 -6 950V32C-6 12.1177 10.1177 -4 30 -4L32 4C17.6406 4 6 16.536 6 32V956C6 962.627 8.68629 968 12 968ZM1470 -4C1489.88 -4 1506 12.1177 1506 32V950C1506 959.941 1497.94 968 1488 968C1491.31 968 1494 962.627 1494 956V32C1494 16.536 1482.36 4 1468 4L1470 -4Z" fill="url(#paint1_linear_148_1395)" mask="url(#path-1-inside-1_148_1395)"/>
<path d="M-6 32C-6 12.1177 10.1177 -4 30 -4H1470C1489.88 -4 1506 12.1177 1506 32H1494C1494 16.536 1482.36 4 1468 4H32C17.6406 4 6 16.536 6 32H-6ZM1500 968H0H1500ZM12 968C2.05887 968 -6 959.941 -6 950V32C-6 12.1177 10.1177 -4 30 -4L32 4C17.6406 4 6 16.536 6 32V956C6 962.627 8.68629 968 12 968ZM1470 -4C1489.88 -4 1506 12.1177 1506 32V950C1506 959.941 1497.94 968 1488 968C1491.31 968 1494 962.627 1494 956V32C1494 16.536 1482.36 4 1468 4L1470 -4Z" fill="url(#paint2_linear_148_1395)" mask="url(#path-1-inside-1_148_1395)"/>
</g>
<defs>
<filter id="filter0_i_148_1395" x="0" y="0" width="1502" height="970" filterUnits="userSpaceOnUse" color-interpolation-filters="sRGB">
<feFlood flood-opacity="0" result="BackgroundImageFix"/>
<feBlend mode="normal" in="SourceGraphic" in2="BackgroundImageFix" result="shape"/>
<feColorMatrix in="SourceAlpha" type="matrix" values="0 0 0 0 0 0 0 0 0 0 0 0 0 0 0 0 0 0 127 0" result="hardAlpha"/>
<feOffset dx="2" dy="2"/>
<feGaussianBlur stdDeviation="2"/>
<feComposite in2="hardAlpha" operator="arithmetic" k2="-1" k3="1"/>
<feColorMatrix type="matrix" values="0 0 0 0 0.0392157 0 0 0 0 0.00392157 0 0 0 0 0.00392157 0 0 0 0.64 0"/>
<feBlend mode="normal" in2="shape" result="effect1_innerShadow_148_1395"/>
</filter>
<linearGradient id="paint0_linear_148_1395" x1="750" y1="287.639" x2="750" y2="846.041" gradientUnits="userSpaceOnUse">
<stop stop-color="#AD030C"/>
<stop offset="0.886933" stop-color="#0A0101"/>
</linearGradient>
<linearGradient id="paint1_linear_148_1395" x1="750" y1="287.639" x2="750" y2="846.041" gradientUnits="userSpaceOnUse">
<stop stop-color="#AD030C"/>
<stop offset="0.886933" stop-color="#0A0101"/>
</linearGradient>
<linearGradient id="paint2_linear_148_1395" x1="750" y1="287.639" x2="750" y2="846.041" gradientUnits="userSpaceOnUse">
<stop stop-color="#AD030C"/>
<stop offset="0.886933" stop-color="#0A0101"/>
</linearGradient>
</defs>
</svg>
