<svg width="1500" height="511" viewBox="0 0 1500 511" fill="none" xmlns="http://www.w3.org/2000/svg">
<g opacity="0.32">
<mask id="path-1-inside-1_148_1395" fill="white">
<path d="M0 32C0 14.3269 14.3269 0 32 0H1468C1485.67 0 1500 14.3269 1500 32V479C1500 496.673 1485.67 511 1468 511H32C14.3269 511 0 496.673 0 479V32Z"/>
</mask>
<path d="M-2 32C-2 13.2223 13.2223 -2 32 -2H1468C1486.78 -2 1502 13.2223 1502 32H1498C1498 15.4315 1484.57 2 1468 2H32C15.4315 2 2 15.4315 2 32H-2ZM1500 511H0H1500ZM32 511C13.2223 511 -2 495.778 -2 477V32C-2 13.2223 13.2223 -2 32 -2V2C15.4315 2 2 15.4315 2 32V479C2 496.673 15.4315 511 32 511ZM1468 -2C1486.78 -2 1502 13.2223 1502 32V477C1502 495.778 1486.78 511 1468 511C1484.57 511 1498 496.673 1498 479V32C1498 15.4315 1484.57 2 1468 2V-2Z" fill="url(#paint0_linear_148_1395)" mask="url(#path-1-inside-1_148_1395)"/>
<path d="M-2 32C-2 13.2223 13.2223 -2 32 -2H1468C1486.78 -2 1502 13.2223 1502 32H1498C1498 15.4315 1484.57 2 1468 2H32C15.4315 2 2 15.4315 2 32H-2ZM1500 511H0H1500ZM32 511C13.2223 511 -2 495.778 -2 477V32C-2 13.2223 13.2223 -2 32 -2V2C15.4315 2 2 15.4315 2 32V479C2 496.673 15.4315 511 32 511ZM1468 -2C1486.78 -2 1502 13.2223 1502 32V477C1502 495.778 1486.78 511 1468 511C1484.57 511 1498 496.673 1498 479V32C1498 15.4315 1484.57 2 1468 2V-2Z" fill="url(#paint1_linear_148_1395)" mask="url(#path-1-inside-1_148_1395)"/>
</g>
<defs>
<linearGradient id="paint0_linear_148_1395" x1="1500" y1="167.596" x2="1183.41" y2="593.299" gradientUnits="userSpaceOnUse">
<stop stop-color="#E50914"/>
<stop offset="1" stop-opacity="0"/>
</linearGradient>
<linearGradient id="paint1_linear_148_1395" x1="9.65233e-06" y1="164.858" x2="324.546" y2="599.234" gradientUnits="userSpaceOnUse">
<stop stop-color="#E50914"/>
<stop offset="1" stop-opacity="0"/>
</linearGradient>
</defs>
</svg>
