<svg width="22" height="22" viewBox="0 0 22 22" fill="none" xmlns="http://www.w3.org/2000/svg">
<path d="M10.1248 12.2083L5.76417 6.56898C5.71343 6.50442 5.68811 6.42351 5.693 6.34154C5.6979 6.25958 5.73266 6.18225 5.79072 6.12419C5.84878 6.06613 5.92611 6.03137 6.00807 6.02648C6.09003 6.02158 6.17095 6.0469 6.2355 6.09764L11.8748 10.4583C12.1347 10.6627 12.3027 10.962 12.3419 11.2904C12.3811 11.6187 12.2883 11.9491 12.0838 12.209C11.8794 12.4688 11.5801 12.6369 11.2518 12.676C10.9235 12.7152 10.593 12.6224 10.3332 12.418C10.256 12.3562 10.1861 12.2859 10.1248 12.2083Z" stroke="white" stroke-width="1.32" stroke-miterlimit="10" stroke-linecap="round" stroke-linejoin="round"/>
<path d="M3.92883 3.929C2.29291 5.56494 1.27485 7.71751 1.04811 10.0199C0.82136 12.3223 1.39996 14.6321 2.68532 16.5558C3.97069 18.4794 5.88328 19.8979 8.09722 20.5694C10.3112 21.241 12.6895 21.1241 14.8269 20.2387C16.9643 19.3534 18.7286 17.7542 19.8192 15.7139C20.9098 13.6735 21.2592 11.3181 20.8078 9.04897C20.3564 6.77988 19.1322 4.73749 17.3438 3.26981C15.5554 1.80213 13.3134 0.999969 10.9998 1V5.33333" stroke="white" stroke-width="1.32" stroke-miterlimit="10" stroke-linecap="round" stroke-linejoin="round"/>
</svg>
