<svg width="34" height="34" viewBox="0 0 34 34" fill="none" xmlns="http://www.w3.org/2000/svg">
<path d="M33 25.0441C32.9989 26.0809 32.7935 27.1073 32.3957 28.0648C31.9979 29.0222 31.4154 29.8919 30.6814 30.6243C29.9475 31.3566 29.0765 31.9372 28.1182 32.3329C27.1598 32.7286 26.133 32.9317 25.0961 32.9306H8.90386C7.86705 32.9317 6.84017 32.7286 5.88184 32.3329C4.92352 31.9372 4.05252 31.3566 3.31858 30.6243C2.58464 29.8919 2.00213 29.0222 1.6043 28.0648C1.20648 27.1073 1.00114 26.0809 1 25.0441V8.8865C1.00114 7.84969 1.20648 6.82326 1.6043 5.86581C2.00213 4.90836 2.58464 4.03864 3.31858 3.30631C4.05252 2.57398 4.92352 1.99338 5.88184 1.59767C6.84017 1.20195 7.86705 0.998864 8.90386 1H25.0961C26.133 0.998864 27.1599 1.20197 28.1183 1.59773C29.0767 1.99349 29.9477 2.57415 30.6817 3.30654C31.4156 4.03894 31.9981 4.90874 32.3959 5.86627C32.7937 6.8238 32.9989 7.8503 33 8.88717V25.0441Z" fill="url(#paint0_linear_288_135)" stroke="#FCF8F8" stroke-width="1.64473" stroke-miterlimit="10" stroke-linecap="round" stroke-linejoin="round"/>
<path d="M17.002 23.2856C15.7533 23.2828 14.5334 22.91 13.4964 22.2142C12.4595 21.5184 11.652 20.5309 11.176 19.3764C10.7001 18.2219 10.577 16.9523 10.8223 15.7279C11.0676 14.5034 11.6703 13.3792 12.5543 12.4972C13.4383 11.6152 14.5639 11.0149 15.7888 10.7723C17.0138 10.5297 18.2832 10.6556 19.4366 11.1342C20.59 11.6127 21.5758 12.4223 22.2692 13.4608C22.9627 14.4993 23.3328 15.72 23.3328 16.9688C23.3309 18.6459 22.6628 20.2536 21.4756 21.4382C20.2883 22.6229 18.6792 23.2874 17.002 23.2856Z" fill="#0A0101" stroke="#FCF8F8" stroke-width="1.64473" stroke-miterlimit="10" stroke-linecap="round" stroke-linejoin="round"/>
<circle cx="26.2122" cy="7.50555" r="1.79092" fill="url(#paint1_linear_288_135)" stroke="#FCF8F8" stroke-width="1.09648"/>
<defs>
<linearGradient id="paint0_linear_288_135" x1="17" y1="1" x2="17" y2="32.9306" gradientUnits="userSpaceOnUse">
<stop stop-color="#B30710"/>
<stop offset="1" stop-color="#080506"/>
</linearGradient>
<linearGradient id="paint1_linear_288_135" x1="26.2122" y1="5.16638" x2="26.2122" y2="9.84471" gradientUnits="userSpaceOnUse">
<stop stop-color="#B30710"/>
<stop offset="1" stop-color="#080506"/>
</linearGradient>
</defs>
</svg>
