<svg width="60" height="67" viewBox="0 0 60 67" fill="none" xmlns="http://www.w3.org/2000/svg">
<path d="M57 44.9938V20.9938C56.9989 19.9417 56.7212 18.9083 56.1946 17.9973C55.6681 17.0864 54.9112 16.3299 54 15.8038L33 3.80385C32.0879 3.27724 31.0532 3 30 3C28.9468 3 27.9121 3.27724 27 3.80385L6 15.8038C5.08879 16.3299 4.33194 17.0864 3.80538 17.9973C3.27883 18.9083 3.00108 19.9417 3 20.9938V44.9938C3.00108 46.046 3.27883 47.0794 3.80538 47.9904C4.33194 48.9013 5.08879 49.6578 6 50.1838L27 62.1838C27.9121 62.7105 28.9468 62.9877 30 62.9877C31.0532 62.9877 32.0879 62.7105 33 62.1838L54 50.1838C54.9112 49.6578 55.6681 48.9013 56.1946 47.9904C56.7212 47.0794 56.9989 46.046 57 44.9938Z" stroke="#FCF8F8" stroke-width="6" stroke-linecap="round" stroke-linejoin="round"/>
<path d="M3.81055 17.874L30.0005 33.024L56.1905 17.874" stroke="#FCF8F8" stroke-width="6" stroke-linecap="round" stroke-linejoin="round"/>
<path d="M30 63.2341V32.9941" stroke="#FCF8F8" stroke-width="6" stroke-linecap="round" stroke-linejoin="round"/>
</svg>
