<svg width="34" height="35" viewBox="0 0 34 35" fill="none" xmlns="http://www.w3.org/2000/svg">
<path d="M14.3952 27.7525V31.8141C13.811 33.9755 12.84 33.9614 10.5474 32.8829C-1.42339 26.2562 -2.91959 9.79618 10.5474 2.74184C15.8916 -0.0575531 21.7512 0.950384 24.8698 2.74184C34.917 8.51341 36.6272 24.546 24.4422 32.8829C22.1433 33.7828 21.0595 33.9082 20.3807 31.8141V27.7525C20.5883 26.0913 20.2536 25.2557 18.6705 23.9047M14.3952 27.7525C14.4028 25.8932 14.8079 25.0989 15.8916 23.9047M14.3952 27.7525L11.1886 28.1801C9.78556 28.0748 9.16723 27.5957 8.40965 25.8287C8.11856 25.0802 7.67751 24.7822 6.69943 24.3323M15.8916 23.9047C17.3247 23.5327 17.856 23.6169 18.6705 23.9047M15.8916 23.9047C11.1337 23.8249 9.35296 22.4084 8.40965 18.5606C7.938 16.6367 8.40965 14.0715 9.90602 13.0027C9.4377 11.5027 9.40454 10.6599 9.69225 9.15488C11.4193 9.55342 12.2612 9.92866 13.54 10.865C16.7746 10.1807 18.4999 10.2641 21.4494 11.0788C22.6169 10.2184 23.372 9.77991 25.0834 9.15488C25.3442 10.7024 25.2454 11.538 24.8698 13.0027C25.9385 14.0715 26.907 16.6367 26.366 18.5606C25.2841 22.4084 23.211 23.6545 18.6705 23.9047" stroke="#FCF8F8" stroke-width="1.55" stroke-linecap="round" stroke-linejoin="round"/>
</svg>
