<svg width="35" height="31" viewBox="0 0 35 31" fill="none" xmlns="http://www.w3.org/2000/svg">
<path d="M2.08594 10.5499H8.5862V30.2001H2.08594V10.5499Z" fill="url(#paint0_linear_283_132)" stroke="#FCF8F8" stroke-width="1.5" stroke-miterlimit="10" stroke-linecap="round" stroke-linejoin="round"/>
<path d="M25.3619 9.89978C22.5117 9.89978 20.812 10.9499 19.012 13.2496V10.5499H12.5117V30.2H19.0616V19.5499C19.0616 17.2998 20.2115 15.0998 22.8115 15.0998C25.4115 15.0998 26.9613 17.2998 26.9613 19.4998V30.2H33.5117V19.0502C33.5117 11.2998 28.2616 9.89978 25.3619 9.89978Z" fill="url(#paint1_linear_283_132)" stroke="#FCF8F8" stroke-width="1.5" stroke-miterlimit="10" stroke-linecap="round" stroke-linejoin="round"/>
<path d="M5.36185 1C3.21199 1 1.51172 2.54987 1.51172 4.45013C1.51172 6.3504 3.21199 7.90027 5.36185 7.90027C7.51172 7.90027 9.21198 6.3504 9.21198 4.45013C9.21198 2.54987 7.51172 1 5.36185 1Z" fill="url(#paint2_linear_283_132)" stroke="#FCF8F8" stroke-width="1.5" stroke-miterlimit="10" stroke-linecap="round" stroke-linejoin="round"/>
<defs>
<linearGradient id="paint0_linear_283_132" x1="5.33607" y1="10.5499" x2="5.33607" y2="30.2001" gradientUnits="userSpaceOnUse">
<stop stop-color="#B30710"/>
<stop offset="1" stop-color="#080506"/>
</linearGradient>
<linearGradient id="paint1_linear_283_132" x1="23.0117" y1="9.89978" x2="23.0117" y2="30.2" gradientUnits="userSpaceOnUse">
<stop stop-color="#B30710"/>
<stop offset="1" stop-color="#080506"/>
</linearGradient>
<linearGradient id="paint2_linear_283_132" x1="5.36185" y1="1" x2="5.36185" y2="7.90027" gradientUnits="userSpaceOnUse">
<stop stop-color="#B30710"/>
<stop offset="1" stop-color="#080506"/>
</linearGradient>
</defs>
</svg>
