<svg width="52" height="48" viewBox="0 0 52 48" fill="none" xmlns="http://www.w3.org/2000/svg">
<mask id="path-1-outside-1_32_2620" maskUnits="userSpaceOnUse" x="-5.06658" y="-4.30185" width="56.5685" height="56.5685" fill="black">
<rect fill="white" x="-5.06658" y="-4.30185" width="56.5685" height="56.5685"/>
<path d="M8.83244 26.5677C7.40461 25.1399 7.40461 22.8249 8.83244 21.3971L26.2892 3.94031C27.7171 2.51249 30.032 2.51249 31.4599 3.94031L48.9167 21.3971C50.3445 22.8249 50.3445 25.1399 48.9167 26.5677L31.4599 44.0245C30.032 45.4524 27.7171 45.4524 26.2892 44.0245L8.83244 26.5677Z"/>
</mask>
<path d="M3.66182 31.7383C-0.621657 27.4549 -0.621657 20.51 3.66182 16.2265L15.948 3.94031C20.2315 -0.343165 27.1764 -0.343166 31.4599 3.94031L34.0452 6.52562C34.0452 6.52562 32.8877 7.6831 31.4599 9.11093L16.5884 23.9824L3.66182 31.7383ZM51.502 23.9824L28.8745 46.6098L51.502 23.9824ZM31.4599 44.0245C27.1764 48.308 20.2315 48.308 15.948 44.0245L3.66182 31.7383C-0.621657 27.4549 -0.621657 20.51 3.66182 16.2265L16.5884 23.9824L31.4599 38.8539C32.8877 40.2817 34.0452 41.4392 34.0452 41.4392L31.4599 44.0245ZM28.8745 1.35501L51.502 23.9824L28.8745 1.35501Z" fill="white" mask="url(#path-1-outside-1_32_2620)"/>
</svg>
