<svg width="28" height="25" viewBox="0 0 28 25" fill="none" xmlns="http://www.w3.org/2000/svg">
<path d="M24.5382 4.23954C23.9518 3.65284 23.2555 3.18742 22.4891 2.86989C21.7228 2.55235 20.9014 2.38892 20.0719 2.38892C19.2423 2.38892 18.4209 2.55235 17.6546 2.86989C16.8882 3.18742 16.192 3.65284 15.6055 4.23954L14.3885 5.45658L13.1715 4.23954C11.9869 3.055 10.3803 2.38953 8.70514 2.38953C7.02994 2.38953 5.42336 3.055 4.23882 4.23954C3.05428 5.42408 2.38881 7.03066 2.38881 8.70586C2.38881 10.3811 3.05428 11.9876 4.23882 13.1722L5.45586 14.3892L14.3885 23.3219L23.3211 14.3892L24.5382 13.1722C25.1249 12.5858 25.5903 11.8895 25.9078 11.1231C26.2254 10.3568 26.3888 9.53539 26.3888 8.70586C26.3888 7.87633 26.2254 7.05493 25.9078 6.28859C25.5903 5.52224 25.1249 4.82597 24.5382 4.23954Z" stroke="#FCF8F8" stroke-width="3" stroke-linecap="round" stroke-linejoin="round"/>
</svg>
