<svg width="28" height="24" viewBox="0 0 28 24" fill="none" xmlns="http://www.w3.org/2000/svg">
<path d="M24.2264 3.29704C23.6218 2.69211 22.9039 2.21223 22.1137 1.88483C21.3235 1.55743 20.4766 1.38892 19.6213 1.38892C18.766 1.38892 17.9191 1.55743 17.1289 1.88483C16.3388 2.21223 15.6209 2.69211 15.0162 3.29704L13.7614 4.5519L12.5065 3.29704C11.2852 2.07569 9.62868 1.38955 7.90143 1.38955C6.17419 1.38955 4.51769 2.07569 3.29635 3.29704C2.075 4.51839 1.38885 6.17488 1.38885 7.90213C1.38885 9.62937 2.075 11.2859 3.29635 12.5072L4.5512 13.7621L13.7614 22.9723L22.9716 13.7621L24.2264 12.5072C24.8313 11.9026 25.3112 11.1847 25.6386 10.3945C25.966 9.60435 26.1345 8.75743 26.1345 7.90213C26.1345 7.04683 25.966 6.19991 25.6386 5.40975C25.3112 4.61959 24.8313 3.90169 24.2264 3.29704Z" stroke="#FCF8F8" stroke-width="2" stroke-linecap="round" stroke-linejoin="round"/>
</svg>
