<svg width="25" height="22" viewBox="0 0 25 22" fill="none" xmlns="http://www.w3.org/2000/svg">
<path d="M22.5382 2.23954C21.9518 1.65284 21.2555 1.18742 20.4891 0.869889C19.7228 0.552353 18.9014 0.388916 18.0719 0.388916C17.2423 0.388916 16.4209 0.552353 15.6546 0.869889C14.8882 1.18742 14.192 1.65284 13.6055 2.23954L12.3885 3.45658L11.1715 2.23954C9.98692 1.055 8.38033 0.38953 6.70514 0.38953C5.02994 0.38953 3.42336 1.055 2.23882 2.23954C1.05428 3.42408 0.388809 5.03066 0.388809 6.70586C0.388809 8.38105 1.05428 9.98764 2.23882 11.1722L3.45586 12.3892L12.3885 21.3219L21.3211 12.3892L22.5382 11.1722C23.1249 10.5858 23.5903 9.88948 23.9078 9.12313C24.2254 8.35679 24.3888 7.53539 24.3888 6.70586C24.3888 5.87633 24.2254 5.05493 23.9078 4.28859C23.5903 3.52224 23.1249 2.82597 22.5382 2.23954Z" fill="#FCF8F8"/>
</svg>
